<svg width="25" height="27" viewBox="0 0 25 27" fill="none" xmlns="http://www.w3.org/2000/svg">
<path d="M7.56543 3.02832C6.02764 3.02832 4.90462 3.41608 4.16504 4.15234C3.42565 4.88845 3.03613 6.00569 3.03613 7.53516V19.5557C3.03613 21.0851 3.42568 22.2024 4.16504 22.9385C4.90462 23.6747 6.02764 24.0635 7.56543 24.0635H17.4248C18.9616 24.0634 20.0816 23.6753 20.8184 22.9395C21.5551 22.2035 21.9424 21.0855 21.9424 19.5557V7.53516C21.9424 6.00547 21.555 4.88835 20.8184 4.15234C20.0816 3.41635 18.9618 3.02836 17.4248 3.02832H7.56543ZM17.0908 17.749C17.7042 17.749 18.2021 18.2446 18.2021 18.8574C18.202 19.4702 17.7041 19.9658 17.0908 19.9658H7.87695C7.26407 19.9658 6.76477 19.4705 6.76465 18.8574C6.76465 18.2442 7.264 17.749 7.87695 17.749H17.0908ZM17.0908 12.4307C17.457 12.3983 17.8142 12.5461 18.0488 12.8213L18.1436 12.9492V12.9502L18.2188 13.0908C18.3687 13.4284 18.3434 13.8215 18.1436 14.1406V14.1416C17.9185 14.4979 17.5103 14.6962 17.0908 14.6592V14.6602H7.86621L7.85449 14.6592C7.28696 14.5952 6.85569 14.1178 6.85547 13.5459C6.85547 12.9742 7.28688 12.4942 7.85547 12.4316L7.86621 12.4307H17.0908ZM11.4043 7.125L11.415 7.12695C11.9836 7.18949 12.415 7.66857 12.415 8.24023C12.4149 8.8107 11.9834 9.29003 11.415 9.35254L11.4043 9.35352H7.87793L7.86621 9.35254C7.29693 9.28988 6.86536 8.81072 6.86523 8.24023C6.86523 7.66858 7.29672 7.18968 7.86621 7.12695L7.87793 7.125H11.4043ZM24.2002 19.5557C24.2002 21.6387 23.5749 23.3282 22.4023 24.4971C21.23 25.6658 19.5338 26.2909 17.4365 26.291H7.56543C7.02898 26.291 6.51814 26.2499 6.03613 26.1689L6.03223 26.168L5.75391 26.1172L5.75 26.1162C4.19397 25.7985 2.95134 25.0513 2.09961 23.9277C1.24888 22.8054 0.799805 21.323 0.799805 19.5557V7.53516L0.804688 7.21777C0.814468 6.90372 0.838653 6.59871 0.87793 6.30371C1.10654 4.57776 1.82891 3.19659 2.97949 2.24805C4.12886 1.30057 5.68777 0.799805 7.56543 0.799805H17.4365C19.5174 0.799897 21.2035 1.41467 22.375 2.56543C23.5468 3.71653 24.1806 5.38149 24.2002 7.43652V19.5557Z" fill="#7EB794" stroke="#7EB794" stroke-width="0.4"/>
</svg>
