<svg width="25" height="26" viewBox="0 0 25 26" fill="none" xmlns="http://www.w3.org/2000/svg">
<mask id="path-1-outside-1_37_556" maskUnits="userSpaceOnUse" x="0" y="0" width="25" height="26" fill="black">
<rect fill="white" width="25" height="26"/>
<path d="M13.1393 1C13.9901 0.999657 14.8049 1.33674 15.3979 1.93445C15.991 2.53217 16.3118 3.33962 16.286 4.09319L16.2962 4.27042C16.3169 4.44495 16.3749 4.61339 16.4689 4.76865C16.6522 5.0748 16.9522 5.29697 17.3028 5.38617C17.6534 5.47536 18.0259 5.42425 18.3786 5.22206L18.5752 5.1226C20.0511 4.44277 21.8213 4.98302 22.64 6.37513L23.3758 7.62609C23.3952 7.65906 23.4123 7.69314 23.427 7.72809L23.4953 7.8621C24.1534 9.23823 23.6852 10.8751 22.4349 11.7067L22.1262 11.8968C21.9648 12.0071 21.8302 12.1511 21.729 12.3241C21.5462 12.6315 21.4961 12.9975 21.5896 13.3412C21.6831 13.6849 21.9127 13.9779 22.2609 14.1751L22.4612 14.3009C23.0664 14.7157 23.5036 15.3269 23.6943 16.0276C23.9094 16.8181 23.7941 17.66 23.3679 18.3765L22.5763 19.6684L22.457 19.8506C21.527 21.1609 19.7213 21.5613 18.3433 20.782L18.1799 20.6995C18.0096 20.6249 17.8257 20.5838 17.6584 20.5793C17.2943 20.5775 16.9447 20.7185 16.6873 20.9707C16.4298 21.2229 16.286 21.5654 16.2869 21.9638L16.2772 22.1697C16.144 23.7644 14.7814 25 13.1397 25H11.6573C9.91863 25 8.50918 23.6191 8.51094 21.9704L8.50076 21.7932C8.48005 21.6187 8.42205 21.4502 8.32324 21.2869C8.14403 20.98 7.8471 20.7559 7.49845 20.6645C7.14981 20.5731 6.77835 20.6219 6.41878 20.8256L6.20514 20.9301C5.52952 21.2278 4.76744 21.2828 4.05334 21.084C3.24768 20.8596 2.56647 20.33 2.16895 19.6269L1.40415 18.333L1.30236 18.1413C0.605887 16.701 1.15182 14.9695 2.53738 14.1849L2.66374 14.1074C3.03389 13.8564 3.25584 13.4426 3.25584 13C3.25584 12.5188 2.99379 12.0741 2.53538 11.8138L2.34938 11.6969C1.01201 10.7857 0.603391 9.01658 1.43187 7.60835L2.21101 6.35399C3.07754 4.88051 4.99786 4.3722 6.47482 5.20206L6.6347 5.28556C6.7977 5.35885 6.97474 5.39776 7.14521 5.39954C7.8969 5.39961 8.5093 4.80823 8.52069 4.05017L8.5309 3.81737C8.59245 3.0966 8.91168 2.41924 9.43355 1.90549C10.0223 1.32586 10.8226 1 11.6573 1H13.1393ZM13.1397 2.73729H11.6573C11.2944 2.73729 10.9464 2.87897 10.6904 3.13099C10.4635 3.35436 10.3247 3.64889 10.3003 3.92393L10.2842 4.2898C10.1601 5.88505 8.79963 7.13699 7.13592 7.13678C6.70705 7.13241 6.28426 7.03951 5.85312 6.84431L5.62228 6.72503C4.96456 6.35578 4.12589 6.57778 3.73669 7.2391L2.95754 8.49347C2.60052 9.10053 2.77908 9.87359 3.33188 10.2511L3.64474 10.4452C4.50636 11.016 5.02905 11.9715 5.02905 13C5.02905 14.0135 4.52095 14.9608 3.64263 15.5556L3.45566 15.6707C2.84025 16.0195 2.60275 16.7728 2.88878 17.366L2.95633 17.4939L3.71142 18.7701C3.88874 19.0836 4.18625 19.3149 4.53811 19.4128C4.84997 19.4997 5.18282 19.4757 5.4425 19.3622L5.57296 19.2996C6.29315 18.8879 7.15136 18.7751 7.95685 18.9863C8.76233 19.1974 9.44834 19.7151 9.85525 20.4122C10.0741 20.7736 10.2127 21.1758 10.2663 21.6382L10.2905 22.0625C10.3651 22.7374 10.9486 23.2627 11.6573 23.2627H13.1397C13.8565 23.2627 14.4519 22.7228 14.5078 22.0614L14.5146 21.9305C14.5105 21.1102 14.8414 20.3223 15.4334 19.7422C16.0255 19.1622 16.8296 18.838 17.6864 18.8423C18.1067 18.8533 18.5204 18.9456 18.9433 19.132L19.3225 19.3218C19.9176 19.5777 20.6235 19.391 20.9813 18.8881L21.0683 18.7548L21.8415 17.4923C22.0243 17.185 22.0745 16.8189 21.9809 16.4752C21.898 16.1706 21.7079 15.9048 21.4774 15.7458L21.1507 15.5434C20.5259 15.1297 20.0719 14.5075 19.8763 13.7889C19.6611 12.9984 19.7765 12.1565 20.1936 11.4551C20.4219 11.0646 20.7357 10.7288 21.1448 10.4504L21.3376 10.3314C21.9521 9.97925 22.1894 9.22605 21.9054 8.6306L21.8206 8.47035L21.8054 8.43671L21.1036 7.2425C20.7717 6.6781 20.081 6.43424 19.495 6.62692L19.3618 6.67919L19.238 6.74098C18.5201 7.15529 17.6636 7.27283 16.8572 7.06769C16.0508 6.86255 15.3608 6.35158 14.9417 5.65139C14.7228 5.29005 14.5843 4.88781 14.5307 4.42545L14.5149 4.12298C14.5256 3.75908 14.3855 3.40644 14.1265 3.14539C13.8675 2.88435 13.5116 2.73729 13.1397 2.73729ZM12.4039 9.07819C14.6146 9.07819 16.4068 10.834 16.4068 13C16.4068 15.166 14.6146 16.9218 12.4039 16.9218C10.1931 16.9218 8.40098 15.166 8.40098 13C8.40098 10.834 10.1931 9.07819 12.4039 9.07819ZM12.4039 10.8155C11.1725 10.8155 10.1742 11.7935 10.1742 13C10.1742 14.2065 11.1725 15.1845 12.4039 15.1845C13.6353 15.1845 14.6336 14.2065 14.6336 13C14.6336 11.7935 13.6353 10.8155 12.4039 10.8155Z"/>
</mask>
<path d="M13.1393 1C13.9901 0.999657 14.8049 1.33674 15.3979 1.93445C15.991 2.53217 16.3118 3.33962 16.286 4.09319L16.2962 4.27042C16.3169 4.44495 16.3749 4.61339 16.4689 4.76865C16.6522 5.0748 16.9522 5.29697 17.3028 5.38617C17.6534 5.47536 18.0259 5.42425 18.3786 5.22206L18.5752 5.1226C20.0511 4.44277 21.8213 4.98302 22.64 6.37513L23.3758 7.62609C23.3952 7.65906 23.4123 7.69314 23.427 7.72809L23.4953 7.8621C24.1534 9.23823 23.6852 10.8751 22.4349 11.7067L22.1262 11.8968C21.9648 12.0071 21.8302 12.1511 21.729 12.3241C21.5462 12.6315 21.4961 12.9975 21.5896 13.3412C21.6831 13.6849 21.9127 13.9779 22.2609 14.1751L22.4612 14.3009C23.0664 14.7157 23.5036 15.3269 23.6943 16.0276C23.9094 16.8181 23.7941 17.66 23.3679 18.3765L22.5763 19.6684L22.457 19.8506C21.527 21.1609 19.7213 21.5613 18.3433 20.782L18.1799 20.6995C18.0096 20.6249 17.8257 20.5838 17.6584 20.5793C17.2943 20.5775 16.9447 20.7185 16.6873 20.9707C16.4298 21.2229 16.286 21.5654 16.2869 21.9638L16.2772 22.1697C16.144 23.7644 14.7814 25 13.1397 25H11.6573C9.91863 25 8.50918 23.6191 8.51094 21.9704L8.50076 21.7932C8.48005 21.6187 8.42205 21.4502 8.32324 21.2869C8.14403 20.98 7.8471 20.7559 7.49845 20.6645C7.14981 20.5731 6.77835 20.6219 6.41878 20.8256L6.20514 20.9301C5.52952 21.2278 4.76744 21.2828 4.05334 21.084C3.24768 20.8596 2.56647 20.33 2.16895 19.6269L1.40415 18.333L1.30236 18.1413C0.605887 16.701 1.15182 14.9695 2.53738 14.1849L2.66374 14.1074C3.03389 13.8564 3.25584 13.4426 3.25584 13C3.25584 12.5188 2.99379 12.0741 2.53538 11.8138L2.34938 11.6969C1.01201 10.7857 0.603391 9.01658 1.43187 7.60835L2.21101 6.35399C3.07754 4.88051 4.99786 4.3722 6.47482 5.20206L6.6347 5.28556C6.7977 5.35885 6.97474 5.39776 7.14521 5.39954C7.8969 5.39961 8.5093 4.80823 8.52069 4.05017L8.5309 3.81737C8.59245 3.0966 8.91168 2.41924 9.43355 1.90549C10.0223 1.32586 10.8226 1 11.6573 1H13.1393ZM13.1397 2.73729H11.6573C11.2944 2.73729 10.9464 2.87897 10.6904 3.13099C10.4635 3.35436 10.3247 3.64889 10.3003 3.92393L10.2842 4.2898C10.1601 5.88505 8.79963 7.13699 7.13592 7.13678C6.70705 7.13241 6.28426 7.03951 5.85312 6.84431L5.62228 6.72503C4.96456 6.35578 4.12589 6.57778 3.73669 7.2391L2.95754 8.49347C2.60052 9.10053 2.77908 9.87359 3.33188 10.2511L3.64474 10.4452C4.50636 11.016 5.02905 11.9715 5.02905 13C5.02905 14.0135 4.52095 14.9608 3.64263 15.5556L3.45566 15.6707C2.84025 16.0195 2.60275 16.7728 2.88878 17.366L2.95633 17.4939L3.71142 18.7701C3.88874 19.0836 4.18625 19.3149 4.53811 19.4128C4.84997 19.4997 5.18282 19.4757 5.4425 19.3622L5.57296 19.2996C6.29315 18.8879 7.15136 18.7751 7.95685 18.9863C8.76233 19.1974 9.44834 19.7151 9.85525 20.4122C10.0741 20.7736 10.2127 21.1758 10.2663 21.6382L10.2905 22.0625C10.3651 22.7374 10.9486 23.2627 11.6573 23.2627H13.1397C13.8565 23.2627 14.4519 22.7228 14.5078 22.0614L14.5146 21.9305C14.5105 21.1102 14.8414 20.3223 15.4334 19.7422C16.0255 19.1622 16.8296 18.838 17.6864 18.8423C18.1067 18.8533 18.5204 18.9456 18.9433 19.132L19.3225 19.3218C19.9176 19.5777 20.6235 19.391 20.9813 18.8881L21.0683 18.7548L21.8415 17.4923C22.0243 17.185 22.0745 16.8189 21.9809 16.4752C21.898 16.1706 21.7079 15.9048 21.4774 15.7458L21.1507 15.5434C20.5259 15.1297 20.0719 14.5075 19.8763 13.7889C19.6611 12.9984 19.7765 12.1565 20.1936 11.4551C20.4219 11.0646 20.7357 10.7288 21.1448 10.4504L21.3376 10.3314C21.9521 9.97925 22.1894 9.22605 21.9054 8.6306L21.8206 8.47035L21.8054 8.43671L21.1036 7.2425C20.7717 6.6781 20.081 6.43424 19.495 6.62692L19.3618 6.67919L19.238 6.74098C18.5201 7.15529 17.6636 7.27283 16.8572 7.06769C16.0508 6.86255 15.3608 6.35158 14.9417 5.65139C14.7228 5.29005 14.5843 4.88781 14.5307 4.42545L14.5149 4.12298C14.5256 3.75908 14.3855 3.40644 14.1265 3.14539C13.8675 2.88435 13.5116 2.73729 13.1397 2.73729ZM12.4039 9.07819C14.6146 9.07819 16.4068 10.834 16.4068 13C16.4068 15.166 14.6146 16.9218 12.4039 16.9218C10.1931 16.9218 8.40098 15.166 8.40098 13C8.40098 10.834 10.1931 9.07819 12.4039 9.07819ZM12.4039 10.8155C11.1725 10.8155 10.1742 11.7935 10.1742 13C10.1742 14.2065 11.1725 15.1845 12.4039 15.1845C13.6353 15.1845 14.6336 14.2065 14.6336 13C14.6336 11.7935 13.6353 10.8155 12.4039 10.8155Z" fill="#7EB794"/>
<path d="M13.1393 1C13.9901 0.999657 14.8049 1.33674 15.3979 1.93445C15.991 2.53217 16.3118 3.33962 16.286 4.09319L16.2962 4.27042C16.3169 4.44495 16.3749 4.61339 16.4689 4.76865C16.6522 5.0748 16.9522 5.29697 17.3028 5.38617C17.6534 5.47536 18.0259 5.42425 18.3786 5.22206L18.5752 5.1226C20.0511 4.44277 21.8213 4.98302 22.64 6.37513L23.3758 7.62609C23.3952 7.65906 23.4123 7.69314 23.427 7.72809L23.4953 7.8621C24.1534 9.23823 23.6852 10.8751 22.4349 11.7067L22.1262 11.8968C21.9648 12.0071 21.8302 12.1511 21.729 12.3241C21.5462 12.6315 21.4961 12.9975 21.5896 13.3412C21.6831 13.6849 21.9127 13.9779 22.2609 14.1751L22.4612 14.3009C23.0664 14.7157 23.5036 15.3269 23.6943 16.0276C23.9094 16.8181 23.7941 17.66 23.3679 18.3765L22.5763 19.6684L22.457 19.8506C21.527 21.1609 19.7213 21.5613 18.3433 20.782L18.1799 20.6995C18.0096 20.6249 17.8257 20.5838 17.6584 20.5793C17.2943 20.5775 16.9447 20.7185 16.6873 20.9707C16.4298 21.2229 16.286 21.5654 16.2869 21.9638L16.2772 22.1697C16.144 23.7644 14.7814 25 13.1397 25H11.6573C9.91863 25 8.50918 23.6191 8.51094 21.9704L8.50076 21.7932C8.48005 21.6187 8.42205 21.4502 8.32324 21.2869C8.14403 20.98 7.8471 20.7559 7.49845 20.6645C7.14981 20.5731 6.77835 20.6219 6.41878 20.8256L6.20514 20.9301C5.52952 21.2278 4.76744 21.2828 4.05334 21.084C3.24768 20.8596 2.56647 20.33 2.16895 19.6269L1.40415 18.333L1.30236 18.1413C0.605887 16.701 1.15182 14.9695 2.53738 14.1849L2.66374 14.1074C3.03389 13.8564 3.25584 13.4426 3.25584 13C3.25584 12.5188 2.99379 12.0741 2.53538 11.8138L2.34938 11.6969C1.01201 10.7857 0.603391 9.01658 1.43187 7.60835L2.21101 6.35399C3.07754 4.88051 4.99786 4.3722 6.47482 5.20206L6.6347 5.28556C6.7977 5.35885 6.97474 5.39776 7.14521 5.39954C7.8969 5.39961 8.5093 4.80823 8.52069 4.05017L8.5309 3.81737C8.59245 3.0966 8.91168 2.41924 9.43355 1.90549C10.0223 1.32586 10.8226 1 11.6573 1H13.1393ZM13.1397 2.73729H11.6573C11.2944 2.73729 10.9464 2.87897 10.6904 3.13099C10.4635 3.35436 10.3247 3.64889 10.3003 3.92393L10.2842 4.2898C10.1601 5.88505 8.79963 7.13699 7.13592 7.13678C6.70705 7.13241 6.28426 7.03951 5.85312 6.84431L5.62228 6.72503C4.96456 6.35578 4.12589 6.57778 3.73669 7.2391L2.95754 8.49347C2.60052 9.10053 2.77908 9.87359 3.33188 10.2511L3.64474 10.4452C4.50636 11.016 5.02905 11.9715 5.02905 13C5.02905 14.0135 4.52095 14.9608 3.64263 15.5556L3.45566 15.6707C2.84025 16.0195 2.60275 16.7728 2.88878 17.366L2.95633 17.4939L3.71142 18.7701C3.88874 19.0836 4.18625 19.3149 4.53811 19.4128C4.84997 19.4997 5.18282 19.4757 5.4425 19.3622L5.57296 19.2996C6.29315 18.8879 7.15136 18.7751 7.95685 18.9863C8.76233 19.1974 9.44834 19.7151 9.85525 20.4122C10.0741 20.7736 10.2127 21.1758 10.2663 21.6382L10.2905 22.0625C10.3651 22.7374 10.9486 23.2627 11.6573 23.2627H13.1397C13.8565 23.2627 14.4519 22.7228 14.5078 22.0614L14.5146 21.9305C14.5105 21.1102 14.8414 20.3223 15.4334 19.7422C16.0255 19.1622 16.8296 18.838 17.6864 18.8423C18.1067 18.8533 18.5204 18.9456 18.9433 19.132L19.3225 19.3218C19.9176 19.5777 20.6235 19.391 20.9813 18.8881L21.0683 18.7548L21.8415 17.4923C22.0243 17.185 22.0745 16.8189 21.9809 16.4752C21.898 16.1706 21.7079 15.9048 21.4774 15.7458L21.1507 15.5434C20.5259 15.1297 20.0719 14.5075 19.8763 13.7889C19.6611 12.9984 19.7765 12.1565 20.1936 11.4551C20.4219 11.0646 20.7357 10.7288 21.1448 10.4504L21.3376 10.3314C21.9521 9.97925 22.1894 9.22605 21.9054 8.6306L21.8206 8.47035L21.8054 8.43671L21.1036 7.2425C20.7717 6.6781 20.081 6.43424 19.495 6.62692L19.3618 6.67919L19.238 6.74098C18.5201 7.15529 17.6636 7.27283 16.8572 7.06769C16.0508 6.86255 15.3608 6.35158 14.9417 5.65139C14.7228 5.29005 14.5843 4.88781 14.5307 4.42545L14.5149 4.12298C14.5256 3.75908 14.3855 3.40644 14.1265 3.14539C13.8675 2.88435 13.5116 2.73729 13.1397 2.73729ZM12.4039 9.07819C14.6146 9.07819 16.4068 10.834 16.4068 13C16.4068 15.166 14.6146 16.9218 12.4039 16.9218C10.1931 16.9218 8.40098 15.166 8.40098 13C8.40098 10.834 10.1931 9.07819 12.4039 9.07819ZM12.4039 10.8155C11.1725 10.8155 10.1742 11.7935 10.1742 13C10.1742 14.2065 11.1725 15.1845 12.4039 15.1845C13.6353 15.1845 14.6336 14.2065 14.6336 13C14.6336 11.7935 13.6353 10.8155 12.4039 10.8155Z" stroke="#7EB794" stroke-width="0.8" mask="url(#path-1-outside-1_37_556)"/>
</svg>
