<svg width="24" height="28" viewBox="0 0 24 28" fill="none" xmlns="http://www.w3.org/2000/svg">
<path d="M6.97461 12.002C4.87694 12.002 3.17285 13.7207 3.17285 15.8457V21.5459C3.17285 23.671 4.87694 25.3896 6.97461 25.3896H17.0254C19.1231 25.3896 20.8271 23.671 20.8271 21.5459V15.8457C20.8271 13.7207 19.1231 12.002 17.0254 12.002H6.97461ZM11.7686 3.19922C9.31217 3.3102 7.33084 5.28948 7.19531 7.77051L7.1875 8.02539V9.60742H16.8125V8.0459L16.8066 7.7959C16.6777 5.23137 14.5783 3.19452 12.0088 3.19434H12.0078L11.7686 3.19922ZM13.1865 20.1719C13.1865 20.8309 12.6573 21.3691 12 21.3691C11.3976 21.369 10.9025 20.9168 10.8242 20.334L10.8223 20.3203V20.3193L10.8145 20.1855L10.8135 20.1719V17.2197C10.8136 16.5609 11.3429 16.0236 12 16.0234C12.5648 16.0234 13.0351 16.4203 13.1562 16.9502L13.1758 17.0576L13.1777 17.0713L13.1865 17.207L13.1875 17.2197H13.1865V20.1719ZM19.1855 10.002C21.5309 10.8868 23.2002 13.1691 23.2002 15.8457V21.5459C23.2002 24.9892 20.4375 27.7832 17.0254 27.7832H6.97461C3.5625 27.7832 0.799805 24.9892 0.799805 21.5459V15.8457L0.804688 15.5908C0.906659 13.0247 2.54369 10.8576 4.81445 10.001V8.01465L4.82617 7.6416C5.03469 3.81564 8.17792 0.784444 12.0127 0.800781C15.7556 0.800781 18.8269 3.69651 19.1562 7.3877L19.1797 7.74805V7.75195L19.1855 8.04199V10.002Z" fill="#7EB794" stroke="#7EB794" stroke-width="0.4"/>
</svg>
