<svg width="26" height="26" viewBox="0 0 26 26" fill="none" xmlns="http://www.w3.org/2000/svg">
<path d="M12.5342 0.799805C19.0102 0.799979 24.2676 5.93548 24.2676 12.2793C24.2675 15.2027 23.1479 17.8685 21.3096 19.8945L24.8789 23.373L24.9541 23.4541C25.2816 23.846 25.2826 24.4139 24.9561 24.8066L24.8809 24.8877C24.495 25.2661 23.8923 25.3001 23.4668 24.9922L23.4609 24.9883L23.4551 24.9834L23.3555 24.8994L23.3496 24.8945L23.3447 24.8896L19.7178 21.3525C17.7322 22.8592 15.2406 23.7577 12.5342 23.7578C6.05805 23.7578 0.799906 18.6231 0.799805 12.2793C0.799805 5.93537 6.05799 0.799805 12.5342 0.799805ZM12.5342 2.9375C7.25158 2.9375 2.97656 7.12414 2.97656 12.2793C2.97666 17.4344 7.25164 21.6211 12.5342 21.6211C17.8166 21.6209 22.0907 17.4343 22.0908 12.2793C22.0908 7.12424 17.8166 2.93767 12.5342 2.9375Z" fill="#7EB794" stroke="#7EB794" stroke-width="0.4"/>
</svg>
