<svg width="26" height="26" viewBox="0 0 26 26" fill="none" xmlns="http://www.w3.org/2000/svg">
<path d="M8.21582 13.8838C10.3297 13.8838 12.0371 15.6086 12.0371 17.7295V21.4053C12.0371 23.5253 10.3294 25.25 8.21582 25.25H4.57129C2.45769 25.25 0.75 23.5253 0.75 21.4053V17.7295C0.750056 15.6086 2.45742 13.8838 4.57129 13.8838H8.21582ZM21.4307 13.8838C23.5435 13.884 25.2499 15.6091 25.25 17.7295V21.4053C25.25 23.5249 23.5432 25.2498 21.4307 25.25H17.7842C15.6706 25.25 13.9629 23.5253 13.9629 21.4053V17.7295C13.9629 15.6086 15.6703 13.8838 17.7842 13.8838H21.4307ZM4.57129 16.0586C3.66623 16.0586 2.92486 16.8016 2.9248 17.7295V21.4053C2.9248 22.332 3.6662 23.0752 4.57129 23.0752H8.21582C9.12091 23.0752 9.8623 22.332 9.8623 21.4053V17.7295C9.86225 16.8016 9.12088 16.0586 8.21582 16.0586H4.57129ZM17.7842 16.0586C16.8791 16.0586 16.1378 16.8016 16.1377 17.7295V21.4053C16.1377 22.332 16.8791 23.0752 17.7842 23.0752H21.4307C22.3344 23.075 23.0752 22.3319 23.0752 21.4053V17.7295C23.0751 16.8018 22.3344 16.0588 21.4307 16.0586H17.7842ZM8.21582 0.75L8.41309 0.754883C10.4348 0.858035 12.0371 2.54092 12.0371 4.59473V8.27148C12.0371 10.3907 10.3291 12.1162 8.21582 12.1162H4.57129C2.45801 12.1162 0.75 10.3907 0.75 8.27148V4.59473C0.75 2.47468 2.45769 0.75 4.57129 0.75H8.21582ZM21.4307 0.75L21.627 0.754883C23.648 0.857984 25.25 2.54118 25.25 4.59473V8.27148C25.25 10.3903 23.5429 12.116 21.4307 12.1162H17.7842C15.6709 12.1162 13.9629 10.3907 13.9629 8.27148V4.59473C13.9629 2.47468 15.6706 0.75 17.7842 0.75H21.4307ZM4.57129 2.9248C3.6662 2.9248 2.9248 3.66798 2.9248 4.59473V8.27148C2.9248 9.19755 3.66667 9.94141 4.57129 9.94141H8.21582C9.12044 9.94141 9.8623 9.19755 9.8623 8.27148V4.59473C9.8623 3.66798 9.12091 2.9248 8.21582 2.9248H4.57129ZM17.7842 2.9248C16.8791 2.9248 16.1377 3.66798 16.1377 4.59473V8.27148C16.1377 9.19755 16.8796 9.94141 17.7842 9.94141H21.4307C22.334 9.94118 23.0752 9.19741 23.0752 8.27148V4.59473C23.0752 3.66812 22.3344 2.92503 21.4307 2.9248H17.7842Z" fill="#7EB794" stroke="#7EB794" stroke-width="0.5"/>
</svg>
