<svg width="26" height="26" viewBox="0 0 26 26" fill="none" xmlns="http://www.w3.org/2000/svg">
<path d="M18.2012 0.799805C20.2929 0.799893 22.047 1.54765 23.2773 2.84277C24.5068 4.137 25.2002 5.96417 25.2002 8.09961V17.9004C25.2002 20.0358 24.5069 21.863 23.2773 23.1572C22.0467 24.4524 20.2916 25.2002 18.1992 25.2002H7.79785C5.70624 25.2002 3.95278 24.4523 2.72266 23.1572C1.49341 21.863 0.799805 20.0359 0.799805 17.9004V8.09961C0.799805 5.96585 1.49552 4.13933 2.72559 2.84473C3.95652 1.54922 5.70962 0.79984 7.79785 0.799805H18.2012ZM7.79785 3C6.3185 3.00003 5.12474 3.50428 4.2998 4.38184C3.47361 5.26074 3 6.53318 3 8.09961V17.9004C3 19.4692 3.47167 20.7419 4.29688 21.6201C5.12083 22.497 6.31493 23 7.79785 23H18.1992C19.6828 23 20.8777 22.4969 21.7021 21.6201C22.5278 20.7419 23 19.4692 23 17.9004V8.09961C23 6.53092 22.5277 5.25815 21.7021 4.37988C20.878 3.50318 19.684 3.00008 18.2012 3H7.79785ZM9.41895 9.26367C9.78342 8.96116 10.2973 8.93028 10.6924 9.1709L10.7754 9.22656L10.7871 9.23633L10.8877 9.32324L10.8936 9.32812L10.8984 9.33301L12.9971 11.4326L15.0957 9.33594L15.1797 9.26074C15.6117 8.9082 16.2486 8.9333 16.6514 9.33594C17.042 9.72659 17.0774 10.3378 16.7578 10.7686L16.7539 10.7744L16.749 10.7803L16.6621 10.8809L16.6572 10.8867L16.6514 10.8916L14.5527 12.9893L16.6533 15.0898L16.7295 15.1729C17.0583 15.576 17.0581 16.1583 16.7295 16.5615L16.6533 16.6455C16.2626 17.036 15.6514 17.0716 15.2207 16.752L15.2148 16.7471L15.21 16.7422L15.1084 16.6553L15.1035 16.6504L15.0977 16.6455L12.998 14.5439L10.9014 16.6416C10.4718 17.0712 9.77528 17.0712 9.3457 16.6416C8.95521 16.2509 8.91967 15.6397 9.23926 15.209L9.24414 15.2031L9.24902 15.1982L9.33594 15.0967L9.34082 15.0918L9.3457 15.0859L11.4424 12.9883L9.34277 10.8887C8.9133 10.459 8.91317 9.76252 9.34277 9.33301L9.41895 9.26367Z" fill="#7EB794" stroke="#7EB794" stroke-width="0.4"/>
</svg>
