<svg width="26" height="26" viewBox="0 0 26 26" fill="none" xmlns="http://www.w3.org/2000/svg">
<path d="M18.2012 0.799805C20.2929 0.799893 22.047 1.54765 23.2773 2.84277C24.5068 4.137 25.2002 5.96417 25.2002 8.09961V17.9004C25.2002 20.0358 24.5069 21.863 23.2773 23.1572C22.0467 24.4524 20.2916 25.2002 18.1992 25.2002H7.79785C5.70624 25.2002 3.95278 24.4523 2.72266 23.1572C1.49341 21.863 0.799805 20.0359 0.799805 17.9004V8.09961C0.799805 5.96585 1.49552 4.13933 2.72559 2.84473C3.95652 1.54922 5.70962 0.79984 7.79785 0.799805H18.2012ZM7.79785 3C6.3185 3.00003 5.12474 3.50428 4.2998 4.38184C3.47361 5.26074 3 6.53318 3 8.09961V17.9004C3 19.4692 3.47167 20.7419 4.29688 21.6201C5.12083 22.497 6.31493 23 7.79785 23H18.1992C19.6828 23 20.8777 22.4969 21.7021 21.6201C22.5278 20.7419 23 19.4692 23 17.9004V8.09961C23 6.53092 22.5277 5.25815 21.7021 4.37988C20.878 3.50318 19.684 3.00008 18.2012 3H7.79785ZM16.5771 9.29883C17.0092 8.94655 17.6461 8.97231 18.0488 9.375L18.1182 9.4502C18.4428 9.84076 18.4549 10.4027 18.1553 10.8066L18.1514 10.8125L18.1465 10.8184L18.0596 10.9199L12.3545 16.625C11.9639 17.0156 11.3527 17.0509 10.9219 16.7314L10.916 16.7275L10.9102 16.7227L10.8096 16.6357L10.8037 16.6309L10.7988 16.626L7.9502 13.7783C7.52061 13.3489 7.51999 12.6523 7.94922 12.2227L8.02539 12.1533C8.38977 11.8505 8.90359 11.819 9.29883 12.0596L9.38184 12.1152L9.39355 12.125L9.49414 12.2119L9.5 12.2168L11.5742 14.291L16.4932 9.375L16.5771 9.29883Z" fill="#7EB794" stroke="#7EB794" stroke-width="0.4"/>
</svg>
