<svg width="26" height="26" viewBox="0 0 26 26" fill="none" xmlns="http://www.w3.org/2000/svg">
<path d="M13.0713 0.799805L13.5439 0.8125C18.4175 1.03598 22.7122 4.14162 24.4287 8.73438L24.585 9.18066C26.0644 13.6585 24.8239 18.5924 21.4014 21.8408L21.0518 22.1602C17.2511 25.4987 11.7826 26.1508 7.30176 23.8018L7.26074 23.7871L7.24219 23.7812L7.22559 23.7715C7.21292 23.7641 7.19889 23.7536 7.18457 23.7402L6.41211 23.3018C6.28199 23.2505 6.14655 23.2462 6.08203 23.2617C5.22779 23.5681 4.35501 23.8209 3.46875 24.0166L3.45996 24.0195L3.4502 24.0205L3.28809 24.04L3.27832 24.041H3.26855C2.73593 24.0528 2.30985 23.8845 2.01953 23.5635C1.73289 23.2464 1.60163 22.8058 1.60156 22.3135V22.3008L1.60254 22.2891L1.62598 22.0928L1.62988 22.0693C1.85183 21.1514 2.1296 20.2473 2.44629 19.4092C2.47771 19.3056 2.46904 19.1913 2.40918 19.0791L2.4082 19.0762L2.1875 18.6465V18.6475C0.205467 14.8576 0.355431 10.3082 2.58203 6.65625L2.7959 6.31836C5.05744 2.86807 8.92025 0.783333 13.0703 0.799805H13.0713ZM12.7256 2.87793L12.7266 2.87891C9.40621 2.97395 6.3414 4.68749 4.52539 7.46387L4.35352 7.73633C2.56363 10.672 2.3909 14.3058 3.87988 17.3945L4.0293 17.6924L4.03027 17.6934L4.24707 18.1172H4.24609C4.55984 18.7061 4.62373 19.3939 4.41113 20.0742L4.4082 20.085C4.19764 20.6442 4.01182 21.2123 3.84961 21.7871L3.98926 21.751C4.14851 21.7071 4.30822 21.661 4.46875 21.6123L4.95801 21.457L5.46094 21.2852L5.47266 21.2812L5.68945 21.2314C6.12672 21.1495 6.57991 21.1781 7.02832 21.3232L7.25293 21.4062L7.26367 21.4102L7.2627 21.4111C7.32398 21.4407 7.39226 21.4751 7.46777 21.5156L7.71875 21.6543L7.71973 21.6553L8.22656 21.9453H8.22559L8.56641 22.1162L8.90234 22.2705C12.39 23.8009 16.4617 23.2513 19.4209 20.8232L19.6855 20.5986C22.7428 17.9109 23.8832 13.6692 22.6152 9.83105L22.4854 9.46094C21.0149 5.52632 17.2635 2.90608 13.0566 2.87402V2.87305L12.7256 2.87793ZM8.18359 22.0186L8.18262 22.0244L8.19824 21.9932L8.18359 22.0186ZM7.73926 11.4316C8.60553 11.4317 9.30846 12.1333 9.30859 13C9.30859 13.8669 8.60561 14.5693 7.73926 14.5693C6.87286 14.5693 6.16992 13.8669 6.16992 13C6.17006 12.1332 6.87294 11.4316 7.73926 11.4316ZM13.0635 11.4316C13.9298 11.4317 14.6327 12.1333 14.6328 13C14.6328 13.8669 13.9298 14.5693 13.0635 14.5693C12.1971 14.5693 11.4941 13.8669 11.4941 13C11.4943 12.1332 12.1972 11.4316 13.0635 11.4316ZM18.3877 11.4316C19.254 11.4317 19.9569 12.1332 19.957 13C19.957 13.8669 19.2541 14.5693 18.3877 14.5693C17.5213 14.5693 16.8184 13.8669 16.8184 13C16.8185 12.1332 17.5214 11.4316 18.3877 11.4316Z" fill="#7EB794" stroke="#7EB794" stroke-width="0.4"/>
</svg>
