<svg width="22" height="13" viewBox="0 0 22 13" fill="none" xmlns="http://www.w3.org/2000/svg">
<path d="M10.2158 1.08203C10.6231 0.744421 11.1972 0.710133 11.6387 0.978516L11.7314 1.04004L11.7373 1.04492L11.7422 1.0498L11.8584 1.14941L11.8633 1.15332L11.8691 1.15918L20.8398 10.1064L20.9238 10.2002C21.2915 10.6498 21.2917 11.2985 20.9238 11.748L20.8398 11.8408C20.4035 12.276 19.7213 12.3158 19.2402 11.96L19.2285 11.9502L19.1133 11.8506L19.1074 11.8467L19.1025 11.8408L11 3.75879L2.89746 11.8408C2.46117 12.276 1.77892 12.3158 1.29785 11.96L1.28613 11.9502L1.1709 11.8506L1.16504 11.8467L1.16016 11.8408C0.723726 11.4054 0.683905 10.7244 1.04102 10.2441L1.05078 10.2324L1.15039 10.1172L1.15527 10.1123L1.16016 10.1064L10.1309 1.15918L10.2158 1.08203Z" fill="#7EB794" stroke="#7EB794" stroke-width="0.4"/>
</svg>
