<svg width="22" height="13" viewBox="0 0 22 13" fill="none" xmlns="http://www.w3.org/2000/svg">
<path d="M19.1875 1.08203C19.5946 0.744735 20.1681 0.710433 20.6094 0.978516L20.7021 1.04004L20.7139 1.0498L20.8291 1.14941L20.835 1.15332L20.8398 1.15918C21.2763 1.59456 21.3161 2.27563 20.959 2.75586L20.9492 2.76758L20.8496 2.88281L20.8447 2.8877L20.8398 2.89355L11.8691 11.8408C11.4328 12.2761 10.7496 12.316 10.2686 11.96L10.2627 11.9551L10.2578 11.9502L10.1416 11.8506L10.1367 11.8467L10.1309 11.8408L1.16016 2.89355C0.680061 2.41471 0.680121 1.63806 1.16016 1.15918L1.24512 1.08203C1.65223 0.744736 2.22568 0.710431 2.66699 0.978516L2.75977 1.04004L2.77148 1.0498L2.88672 1.14941L2.89258 1.15332L2.89746 1.15918L11 9.24023L19.1025 1.15918L19.1875 1.08203Z" fill="#7EB794" stroke="#7EB794" stroke-width="0.4"/>
</svg>
