<svg width="26" height="25" viewBox="0 0 26 25" fill="none" xmlns="http://www.w3.org/2000/svg">
<path d="M6.72559 1.07129C8.63548 0.561336 10.6543 0.777837 12.4072 1.66309L12.7793 1.86328L12.7832 1.86523L12.9961 1.99414L13.2148 1.86426L13.2178 1.86133L13.5703 1.67188C15.2306 0.829619 17.1331 0.585645 18.959 0.995117L19.3486 1.09277L19.3535 1.09473L19.6719 1.19043L19.6758 1.19141L20.0938 1.33984C24.3316 2.97528 26.1643 7.79446 24.7031 12.373L24.7012 12.3779C23.9481 14.5669 22.7135 16.5523 21.083 18.1885L21.0811 18.1904C18.881 20.3458 16.4553 22.2491 13.8516 23.8643L13.8506 23.8633L13.5771 24.0361C13.2769 24.2243 12.907 24.2508 12.5869 24.1143L12.4531 24.0459L12.1582 23.8672L12.1562 23.8662C9.54896 22.2488 7.12357 20.3454 4.91602 18.1826L4.91406 18.1807C3.29091 16.5517 2.05615 14.5663 1.29688 12.3584L1.29492 12.3545C-0.208169 7.64429 1.7858 2.66348 6.31836 1.19141L6.72559 1.07129ZM19.0146 3.25488C17.2996 2.7002 15.4368 2.96425 13.9385 3.95996L13.6436 4.16895C13.3141 4.41772 12.8777 4.45357 12.5176 4.27344L12.3682 4.18262L12.1357 4.01367V4.01465C10.7163 3.03599 8.9578 2.72869 7.30762 3.16016L6.97949 3.25586C3.69725 4.32192 2.17451 8.00914 3.33984 11.668L3.46582 12.0176C4.11952 13.7571 5.13062 15.3344 6.42676 16.6357L6.82031 17.0166C8.72189 18.8292 10.7946 20.445 13 21.8389L13.4561 21.5498C15.4055 20.2799 17.2415 18.8388 18.9395 17.2471L19.5713 16.6416C20.9608 15.2462 22.0187 13.5448 22.6582 11.6865C23.8285 8.01244 22.2987 4.32246 19.0146 3.25586V3.25488ZM16.3506 6.33594C16.5312 5.76608 17.1377 5.44883 17.7061 5.63184L18.0117 5.74414C19.5127 6.35706 20.5565 7.77957 20.6943 9.43066L20.6982 9.54199C20.6893 10.0538 20.3222 10.4932 19.8203 10.5879L19.7109 10.6025C19.1536 10.6498 18.6619 10.2619 18.5615 9.72266L18.5469 9.6123C18.4769 8.77458 17.9496 8.0598 17.2012 7.75391L17.0488 7.69824C16.4813 7.5155 16.1705 6.90501 16.3506 6.33594Z" fill="#7EB794" stroke="#7EB794" stroke-width="0.4"/>
</svg>
