<svg width="23" height="26" viewBox="0 0 23 26" fill="none" xmlns="http://www.w3.org/2000/svg">
<path d="M3.51172 8.86133C3.9831 8.86722 4.38719 9.18589 4.52441 9.62988L4.5498 9.72656L4.55176 9.7373L4.55273 9.74805L4.58887 10.1016L4.58984 10.1055L4.88281 13.7256L5.20312 17.4775L5.40332 19.6699C5.46486 20.3165 5.52152 20.8751 5.57129 21.3359L5.59863 21.5371C5.67542 21.9879 5.83648 22.3173 6.06543 22.542C6.32515 22.7968 6.6964 22.9406 7.20117 22.9512L9.42285 22.9873C11.6622 23.0116 13.9564 23.0007 16.3203 22.957L16.5166 22.9473C16.9571 22.9093 17.2848 22.7709 17.5205 22.5469C17.7911 22.2896 17.9672 21.8935 18.0283 21.3271L18.1797 19.8262L18.3223 18.2969L18.6426 14.6084L19.0293 9.87305L19.042 9.77148C19.1276 9.2698 19.5432 8.89124 20.0439 8.86328L20.0576 8.8623L20.1768 8.86426H20.1904L20.1738 9.06152L20.1904 8.86523C20.738 8.91051 21.151 9.3632 21.1797 9.90039L21.1807 9.91016L21.1797 9.9209L21.168 10.167V10.1748L20.791 14.7959L20.79 14.7969L20.3945 19.3066V19.3086C20.3526 19.7589 20.3127 20.1742 20.2754 20.5518L20.1709 21.5684C20.0543 22.6484 19.6429 23.5385 18.9814 24.1641C18.3606 24.7511 17.5328 25.0927 16.5566 25.1494L16.3594 25.1572C13.9752 25.2013 11.6601 25.212 9.39941 25.1875L7.15625 25.1504C6.12183 25.1287 5.24407 24.7764 4.5957 24.1504C3.94834 23.5253 3.54331 22.641 3.42871 21.5771V21.5762L3.27539 20.0645V20.0625L3.00879 17.1309V17.1289L2.73535 13.9121V13.9111L2.42285 10.0498V10.0488C2.3759 9.44832 2.8127 8.9145 3.41016 8.86523L3.51172 8.86133ZM14.2764 0.799805L14.4814 0.808594C15.43 0.885514 16.2521 1.49324 16.6396 2.4043L16.7158 2.60449L16.7188 2.61133L16.7764 2.80566L16.7793 2.81445L16.7812 2.82422L17.0654 4.2832L17.1035 4.41895C17.2141 4.72228 17.4794 4.93682 17.7881 4.97852L17.9111 4.9873H21.7227C22.3224 4.98748 22.7998 5.4843 22.7998 6.08691C22.7998 6.63985 22.3987 7.103 21.8691 7.17676L21.8555 7.17871L21.7363 7.18652L21.7227 7.1875H1.87793C1.27804 7.1875 0.799805 6.68967 0.799805 6.08691C0.79984 5.53395 1.2018 5.07075 1.73145 4.99707L1.74512 4.99512L1.86426 4.9873L1.87793 4.98633V4.9873H5.70117C6.06367 4.9873 6.38502 4.74816 6.50293 4.39746L6.53418 4.28027L6.83105 2.76758L6.83398 2.75586L6.89453 2.55664C7.23232 1.5778 8.10417 0.890743 9.11914 0.808594L9.12695 0.807617L9.31543 0.799805H14.2764ZM9.32324 3C9.15603 3 9.00963 3.10097 8.9502 3.21484L8.92969 3.2666L8.64844 4.71289C8.63019 4.80634 8.60717 4.89834 8.58105 4.98828H15.0195C15.0134 4.96718 15.0067 4.94611 15.001 4.9248L14.999 4.91797L14.9531 4.71973L14.9512 4.71289L14.6826 3.32227L14.6621 3.26074C14.6052 3.1256 14.4865 3.03057 14.3496 3.00586L14.2715 3H9.32324Z" fill="#7EB794" stroke="#7EB794" stroke-width="0.4"/>
</svg>
