<svg width="26" height="24" viewBox="0 0 26 24" fill="none" xmlns="http://www.w3.org/2000/svg">
<path d="M11.4043 1.16895C12.9946 0.386467 14.9105 0.885963 15.918 2.30664L16.0156 2.45215L16.0186 2.45703L16.1279 2.64062L16.1299 2.64355L24.9209 18.0459L24.9277 18.0566L24.9326 18.0684C25.0466 18.3456 25.1246 18.6375 25.166 18.9375L25.1953 19.2402V19.2412L25.2002 19.4199C25.205 21.255 23.8207 22.7983 21.9629 23.0039L21.957 23.0049V23.0039L21.7461 23.0215L21.7373 23.0225H4.32617L4.31738 23.0215L4.29004 23.0186L4.20117 23.0205H4.18555C3.88609 23.0037 3.59106 22.9502 3.30469 22.8613L3.29688 22.8594L3.02832 22.7637L3.02051 22.7607C1.2456 22.0378 0.362797 20.0632 1.01367 18.1807L1.01562 18.1758L1.09375 17.9697L1.09863 17.9551L1.10742 17.9414L9.84082 2.65527C10.1683 2.06362 10.6567 1.57609 11.2461 1.25195L11.4043 1.16895ZM14.2109 3.72266C13.8375 3.04783 12.9881 2.80331 12.3105 3.17871L12.3096 3.17969C12.1294 3.27881 11.9729 3.41744 11.8496 3.59082L11.7549 3.74316L3.0791 18.9111C2.79602 19.6231 3.13902 20.4307 3.8457 20.7197H3.84668C3.94201 20.7581 4.04196 20.7854 4.14453 20.8027L4.30469 20.8213L4.32812 20.8203H4.33496L21.6719 20.8213C22.4436 20.7808 23.0361 20.1248 22.9971 19.3594L22.9824 19.2158C22.9765 19.172 22.9697 19.1308 22.9629 19.0947L22.9434 19.0059L14.2119 3.72559L14.2109 3.72266ZM12.9883 15.8311C13.5942 15.8311 14.0898 16.3163 14.0898 16.9258V16.9385C14.0898 17.5462 13.596 18.04 12.9883 18.04C12.3808 18.0398 11.8877 17.546 11.8877 16.9385C11.8878 16.3331 12.3788 15.8313 12.9883 15.8311ZM14.0771 13.4873C14.0771 14.0952 13.5844 14.5877 12.9766 14.5879C12.4192 14.5879 11.9588 14.1741 11.8857 13.6367L11.8838 13.623L11.876 13.501L11.875 13.4873V9.76367C11.8752 9.15584 12.3687 8.66309 12.9766 8.66309C13.4991 8.66324 13.9362 9.02731 14.0488 9.51562L14.0674 9.61523L14.0684 9.62793L14.0762 9.75098L14.0771 9.76367V13.4873Z" fill="#7EB794" stroke="#7EB794" stroke-width="0.4"/>
</svg>
