<svg width="26" height="26" viewBox="0 0 26 26" fill="none" xmlns="http://www.w3.org/2000/svg">
<path d="M0.799805 7.79785C0.79984 5.70624 1.54774 3.95278 2.84277 2.72266C4.13699 1.49341 5.96406 0.799805 8.09961 0.799805H17.9004C20.0339 0.799805 21.8606 1.49546 23.1553 2.72559C24.4508 3.95661 25.2002 5.71 25.2002 7.79785V18.2012C25.2001 20.2929 24.4524 22.047 23.1572 23.2773C21.863 24.5068 20.0358 25.2002 17.9004 25.2002H8.09961L7.70215 25.1924C5.73733 25.1116 4.05605 24.4299 2.84277 23.2773C1.54765 22.047 0.799893 20.2929 0.799805 18.2012L0.799805 7.79785ZM3 18.2012C3.00008 19.684 3.50318 20.878 4.37988 21.7021C5.25815 22.5277 6.53092 23 8.09961 23H17.9004C19.4691 23 20.7418 22.5277 21.6201 21.7021C22.4968 20.878 22.9999 19.684 23 18.2012V7.79785C23 6.3189 22.4958 5.12485 21.6182 4.2998C20.7392 3.47352 19.4665 3 17.9004 3H8.09961C6.53077 3 5.25809 3.47167 4.37988 4.29688C3.50305 5.12083 3.00003 6.31493 3 7.79785L3 18.2012ZM15.2393 11.9004L12.6104 9.28223L12.541 9.20605C12.2376 8.84222 12.2055 8.32827 12.4453 7.93262L12.501 7.84961L12.5107 7.83789L12.5977 7.7373L12.6025 7.73145L12.6074 7.72656C12.9972 7.33512 13.6076 7.29858 14.0391 7.61719L14.0459 7.62109L14.0508 7.62598L14.1523 7.71289L14.1582 7.71777L14.1631 7.72266L18.6797 12.2207C18.683 12.224 18.6853 12.2282 18.6885 12.2314L18.6895 12.2305L18.6992 12.2422C18.724 12.2682 18.7468 12.2954 18.7686 12.3232C18.771 12.3264 18.7749 12.3288 18.7773 12.332L18.7764 12.333C18.7917 12.3531 18.8075 12.3727 18.8213 12.3936L18.8232 12.3965C18.8353 12.4154 18.847 12.4372 18.8594 12.459L18.8604 12.458C18.8723 12.4782 18.8827 12.4975 18.8916 12.5156L18.8926 12.5186C18.9039 12.5426 18.9149 12.5692 18.9258 12.5967L18.9268 12.5957C18.9356 12.6171 18.9421 12.6374 18.9482 12.6563L18.9492 12.6582C18.9581 12.6863 18.9672 12.7167 18.9746 12.748L18.9736 12.749C18.9781 12.767 18.9824 12.7839 18.9854 12.7998V12.8018C18.9903 12.8302 18.995 12.8605 18.998 12.8916L18.9971 12.8926C18.9996 12.9152 19.0021 12.9367 19.0029 12.957V13.042C19.0023 13.058 19.0003 13.0739 18.999 13.0898C18.9985 13.0957 18.9986 13.1016 18.998 13.1074V13.1094H18.9971C18.9941 13.139 18.9896 13.1683 18.9844 13.1973H18.9854C18.9822 13.2164 18.9785 13.2353 18.9746 13.252L18.9736 13.2539C18.9662 13.2842 18.9582 13.3145 18.9482 13.3447H18.9473C18.9413 13.3637 18.9353 13.3825 18.9287 13.3994L18.9277 13.4023C18.9164 13.4302 18.9041 13.4579 18.8906 13.4854H18.8896C18.8809 13.5039 18.8723 13.5221 18.8633 13.5381L18.8613 13.541C18.8489 13.5622 18.8359 13.5844 18.8213 13.6064H18.8203C18.809 13.6242 18.7973 13.6413 18.7861 13.6563L18.7822 13.6621H18.7812L18.7744 13.6719H18.7734C18.7508 13.7012 18.7256 13.7281 18.7002 13.7549H18.7012L18.6992 13.7559C18.6984 13.7567 18.6981 13.758 18.6973 13.7588L18.6904 13.7686L18.6797 13.7793L14.1631 18.2773C13.7326 18.706 13.0361 18.7039 12.6074 18.2734L12.5381 18.1982C12.2358 17.833 12.2065 17.3186 12.4482 16.9238L12.5039 16.8408L12.5088 16.835L12.5137 16.8301L12.6006 16.7285L12.6055 16.7236L12.6104 16.7178L15.2402 14.0996H8.09668C7.48922 14.0995 6.99707 13.6075 6.99707 13C6.99707 12.4777 7.36054 12.0403 7.84863 11.9277L7.94824 11.9102L7.96094 11.9082L8.08301 11.9004L8.09668 11.8994V11.9004H15.2393Z" fill="#7EB794" stroke="#7EB794" stroke-width="0.4"/>
</svg>
