<svg width="26" height="26" viewBox="0 0 26 26" fill="none" xmlns="http://www.w3.org/2000/svg">
<path d="M25.2002 18.2021C25.2002 20.2938 24.4523 22.0472 23.1572 23.2773C21.863 24.5066 20.0359 25.2002 17.9004 25.2002L8.09961 25.2002C5.96607 25.2002 4.13937 24.5045 2.84473 23.2744C1.54917 22.0434 0.79984 20.29 0.799805 18.2021L0.799805 7.79883C0.799893 5.70711 1.54765 3.95302 2.84277 2.72266C4.137 1.49316 5.96417 0.799805 8.09961 0.799805L17.9004 0.799805L18.2979 0.807617C20.2627 0.888354 21.9439 1.57007 23.1572 2.72266C24.4524 3.95302 25.2001 5.70711 25.2002 7.79883L25.2002 18.2021ZM23 7.79883C22.9999 6.31599 22.4968 5.12203 21.6201 4.29785C20.7418 3.47234 19.4691 3 17.9004 3L8.09961 3C6.53092 3 5.25815 3.47234 4.37988 4.29785C3.50318 5.12203 3.00008 6.31599 3 7.79883L3 18.2021C3.00003 19.6811 3.5042 20.8751 4.38184 21.7002C5.26082 22.5265 6.53348 23 8.09961 23L17.9004 23C19.4692 23 20.7419 22.5283 21.6201 21.7031C22.497 20.8792 23 19.6851 23 18.2021L23 7.79883ZM10.7607 14.0996L13.3896 16.7178L13.459 16.7939C13.7624 17.1578 13.7945 17.6717 13.5547 18.0674L13.499 18.1504L13.4893 18.1621L13.4023 18.2627L13.3975 18.2686L13.3926 18.2734C13.0028 18.6649 12.3924 18.7014 11.9609 18.3828L11.9541 18.3789L11.9492 18.374L11.8477 18.2871L11.8418 18.2822L11.8369 18.2773L7.32031 13.7793C7.31704 13.776 7.31474 13.7718 7.31152 13.7686L7.31055 13.7695L7.30078 13.7578C7.27599 13.7318 7.25324 13.7046 7.23145 13.6768C7.22896 13.6736 7.22511 13.6712 7.22266 13.668L7.22363 13.667C7.20826 13.6469 7.19253 13.6273 7.17871 13.6064L7.17676 13.6035C7.16475 13.5846 7.153 13.5628 7.14062 13.541L7.13965 13.542C7.12769 13.5218 7.11727 13.5025 7.1084 13.4844L7.10742 13.4814C7.09605 13.4574 7.08507 13.4308 7.07422 13.4033L7.07324 13.4043C7.06444 13.3829 7.05794 13.3626 7.05176 13.3437L7.05078 13.3418C7.04186 13.3137 7.03275 13.2833 7.02539 13.252L7.02637 13.251C7.02191 13.233 7.01758 13.2161 7.01465 13.2002V13.1982C7.00973 13.1698 7.00501 13.1395 7.00195 13.1084L7.00293 13.1074C7.00044 13.0848 6.99786 13.0633 6.99707 13.043V12.958C6.99768 12.942 6.99967 12.9261 7.00098 12.9102C7.00145 12.9043 7.00139 12.8984 7.00195 12.8926V12.8906H7.00293C7.00587 12.861 7.01036 12.8317 7.01562 12.8027H7.01465C7.01778 12.7836 7.02149 12.7647 7.02539 12.748L7.02637 12.7461C7.0338 12.7158 7.0418 12.6855 7.05176 12.6553H7.05273C7.05869 12.6363 7.0647 12.6175 7.07129 12.6006L7.07227 12.5977C7.08358 12.5698 7.0959 12.5421 7.10937 12.5146H7.11035C7.11911 12.4961 7.12774 12.4779 7.13672 12.4619L7.13867 12.459C7.15106 12.4378 7.16413 12.4156 7.17871 12.3936H7.17969C7.19102 12.3758 7.20272 12.3587 7.21387 12.3437L7.21777 12.3379H7.21875L7.22559 12.3281H7.22656C7.24919 12.2989 7.2744 12.2719 7.2998 12.2451H7.29883L7.30078 12.2441C7.30158 12.2433 7.30193 12.242 7.30273 12.2412L7.30957 12.2314L7.32031 12.2207L11.8369 7.72266C12.2674 7.29405 12.9639 7.29609 13.3926 7.72656L13.4619 7.80176C13.7642 8.16697 13.7935 8.68138 13.5518 9.07617L13.4961 9.15918L13.4912 9.16504L13.4863 9.16992L13.3994 9.27148L13.3945 9.27637L13.3896 9.28223L10.7598 11.9004H17.9033C18.5108 11.9005 19.0029 12.3925 19.0029 13C19.0029 13.5223 18.6395 13.9597 18.1514 14.0723L18.0518 14.0898L18.0391 14.0918L17.917 14.0996L17.9033 14.1006V14.0996H10.7607Z" fill="#7EB794" stroke="#7EB794" stroke-width="0.4"/>
</svg>
