<svg width="28" height="26" viewBox="0 0 28 26" fill="none" xmlns="http://www.w3.org/2000/svg">
<path d="M27.1787 19.252C27.1787 22.4434 24.666 25.0471 21.5107 25.1934H21.5059L21.2354 25.2002H6.76074C3.66296 25.2002 1.11659 22.8365 0.827148 19.8145L0.806641 19.5195V19.5146L0.799805 19.2441V12.8945L0.807617 12.5967C0.957954 9.54631 3.40801 7.09971 6.45996 6.9541H6.46484L6.74316 6.94727H7.97168C8.61999 6.94747 9.14551 7.47371 9.14551 8.12207C9.1454 8.71641 8.70386 9.20717 8.13086 9.28516L8.11719 9.28711L7.98438 9.2959L7.97168 9.29688V9.2959H6.74805C4.83169 9.2959 3.26379 10.7945 3.1543 12.6826L3.14844 12.8994V19.2393C3.14844 21.1626 4.65217 22.7356 6.54785 22.8457H6.54688L6.7666 22.8516H21.2305C23.1458 22.8516 24.711 21.3566 24.8232 19.4697L24.8301 19.252V12.9082C24.83 10.9857 23.3305 9.41454 21.4375 9.30176V9.30273L21.2129 9.2959H20.0068C19.3585 9.29576 18.8331 8.77037 18.833 8.12207C18.833 7.52756 19.2745 7.03591 19.8477 6.95801L19.8613 6.95605L19.9941 6.94824L20.0068 6.94727H21.2188C24.3168 6.94727 26.8621 9.31021 27.1514 12.333L27.1719 12.6279V12.6328L27.1787 12.9033V19.252ZM15.1631 14.7695L16.9453 12.9834L17.0254 12.9092C17.4139 12.5848 17.9632 12.5503 18.3857 12.8066L18.4736 12.8662L18.4854 12.876L18.5947 12.9697L18.6006 12.9746L18.6055 12.9795C19.0233 13.3956 19.0629 14.0483 18.7227 14.5088L18.7178 14.5146L18.7129 14.5195L18.6191 14.6299L18.6143 14.6348L18.6094 14.6406L14.8213 18.4434C14.818 18.4466 14.8138 18.4489 14.8105 18.4521L14.8115 18.4531L14.7988 18.4639C14.7477 18.5126 14.694 18.5568 14.6367 18.5947L14.6338 18.5967C14.6125 18.6103 14.589 18.6249 14.5645 18.6387C14.5465 18.6493 14.5292 18.6583 14.5137 18.666L14.5117 18.667C14.4807 18.682 14.4475 18.6966 14.4131 18.71L14.4121 18.709C14.3934 18.7165 14.3759 18.724 14.3594 18.7295L14.3574 18.7305C14.3262 18.7405 14.2931 18.7498 14.2588 18.7578L14.2578 18.7568C14.2384 18.7616 14.2203 18.7664 14.2031 18.7695H14.2012C14.1735 18.7743 14.1437 18.7781 14.1133 18.7812L14.1143 18.7822C14.0809 18.7861 14.048 18.7883 14.0166 18.7891H13.9639C13.9401 18.7885 13.9163 18.7861 13.8926 18.7842C13.8877 18.7838 13.8828 18.7837 13.8779 18.7832C13.8747 18.7829 13.8714 18.7835 13.8682 18.7832V18.7822C13.8369 18.779 13.8059 18.7752 13.7754 18.7695V18.7686C13.7563 18.7653 13.7376 18.7618 13.7207 18.7578H13.7188C13.6854 18.7496 13.6523 18.7395 13.6191 18.7285V18.7295C13.6001 18.7236 13.5823 18.7171 13.5664 18.7109L13.5645 18.71C13.5342 18.6979 13.5038 18.6837 13.4736 18.6689V18.6699C13.4533 18.6605 13.4341 18.6492 13.417 18.6396L13.4141 18.6387C13.3849 18.6218 13.3551 18.6038 13.3262 18.584V18.583C13.3123 18.5739 13.2996 18.5655 13.2891 18.5576L13.2871 18.5557C13.2477 18.5255 13.2143 18.4949 13.1816 18.4639L13.1689 18.4551L13.1572 18.4434L9.37012 14.6406C8.91252 14.1811 8.91357 13.4371 9.37305 12.9795L9.4541 12.9062C9.84395 12.5835 10.393 12.5515 10.8145 12.8096L10.9023 12.8691L10.9141 12.8789L11.0234 12.9727L11.0342 12.9834L12.8154 14.7705V1.97461L12.8213 1.85449C12.8812 1.26229 13.3813 0.799903 13.9893 0.799805C14.5466 0.799805 15.0135 1.18814 15.1338 1.70898L15.1533 1.81543L15.1543 1.82812L15.1631 1.96094L15.1641 1.97461L15.1631 14.7695Z" fill="#7EB794" stroke="#7EB794" stroke-width="0.4"/>
</svg>
