<svg width="25" height="26" viewBox="0 0 25 26" fill="none" xmlns="http://www.w3.org/2000/svg">
<path d="M16.6572 22.8037C16.6572 22.9572 16.7655 23.0874 16.9053 23.1201H19.1084C20.6118 23.1201 21.8314 21.9659 21.9209 20.499V20.498L22.1211 20.5117L21.9219 20.498L21.9346 20.3057V10.6035L21.9209 10.4326C21.8717 10.0364 21.6885 9.67038 21.3955 9.3877H21.3945L21.248 9.2627V9.26172L13.9326 3.41016H13.9316C13.0896 2.73437 11.889 2.70058 10.999 3.28906L10.833 3.40918L3.53613 9.29102L3.53027 9.2959C3.15833 9.57192 2.93274 9.98945 2.87891 10.4307L2.86719 10.5986V20.3193C2.86719 21.8086 4.03173 23.0304 5.5127 23.1201H7.84082C7.99619 23.1201 8.11662 23.0296 8.15723 22.9131L8.16895 22.8613L8.19434 22.6494L8.19531 22.6416L8.19629 22.6348L8.20508 22.5869V19.373C8.20508 17.9835 9.27039 16.8532 10.6338 16.748L10.6416 16.7471H14.0332C15.4216 16.7471 16.5519 17.8138 16.6572 19.1768V22.8037ZM24.002 20.3193C24.002 22.936 21.9357 25.0626 19.3486 25.2002H16.9453C15.7006 25.1752 14.6934 24.2064 14.6016 22.9883V22.9873L14.5898 22.8184V19.373C14.5898 19.1046 14.3907 18.8731 14.1133 18.8252L14.0195 18.8154H10.834L10.7285 18.8281C10.4902 18.8775 10.3133 19.0645 10.2832 19.29L10.2725 19.3857V22.793C10.2725 22.883 10.257 22.9822 10.2461 23.043L10.2412 23.0693L10.2295 23.0938L10.2217 23.1475L10.2207 23.1465C10.0732 24.1918 9.25806 25.0023 8.2207 25.165L8.01074 25.1885L7.85449 25.1992L7.84082 25.2002H5.69238C3.0775 25.2001 0.9375 23.1495 0.799805 20.5703V10.5859L0.807617 10.3848C0.87147 9.38323 1.33077 8.46204 2.06738 7.80859L2.07422 7.80273L2.2002 7.95801L2.0752 7.80273L9.55176 1.79004L9.55273 1.78906L9.7041 1.67383C11.235 0.557906 13.2942 0.511097 14.8682 1.5332L15.0244 1.63867L15.0273 1.6416L15.2207 1.78516L15.2266 1.78906L22.5342 7.63574H22.5332C23.328 8.25235 23.8346 9.14819 23.9678 10.1318L23.9893 10.3301L23.9902 10.3369L24.002 10.5781L24.0029 10.5879H24.002V20.3193Z" fill="#7EB794" stroke="#7EB794" stroke-width="0.4"/>
</svg>
