<svg width="22" height="26" viewBox="0 0 22 26" fill="none" xmlns="http://www.w3.org/2000/svg">
<path d="M11.2383 0.799805L11.5439 0.805664H11.5469L12.0693 0.835938C17.422 1.28047 21.6179 5.78776 21.5996 11.2637V11.3896C21.5359 14.7628 19.8492 18.0649 17.082 20.9941L17.0811 20.9951C15.7223 22.4105 14.2051 23.6639 12.5605 24.7314L12.5127 24.7725L12.5059 24.7773L12.5 24.7822C11.7794 25.3 10.8243 25.3363 10.0703 24.8926L10.0625 24.8877L9.90723 24.7871L9.90039 24.7822L9.89355 24.7764L9.8291 24.7256L9.33691 24.3945L9.33496 24.3936C7.25801 22.9618 5.40817 21.2242 3.85156 19.2451L3.84961 19.2432L3.46973 18.7471V18.7461C1.82656 16.5926 0.893137 13.9792 0.799805 11.2383V11.2285L0.805664 10.8867V10.8828L0.835938 10.3604C1.27866 4.99199 5.77165 0.781302 11.2354 0.799805H11.2383ZM10.9453 3.02344L10.9463 3.02441C6.55657 3.15824 3.03086 6.76287 3.01562 11.2002L3.03809 11.6143L3.07324 12.0059C3.2733 13.8313 3.93437 15.5788 5 17.0859L5.23438 17.4053L5.23633 17.4062L5.54199 17.8066C6.98919 19.6589 8.7118 21.2767 10.6494 22.6035L11.0674 22.8838L11.0791 22.8916L11.1777 22.9658L11.1885 22.9746L11.2002 22.9795C11.2043 22.9794 11.2086 22.9775 11.2119 22.9746L11.2227 22.9658L11.3242 22.8896L11.335 22.8809L11.4443 23.0498L11.3359 22.8818C12.8459 21.904 14.2379 20.7542 15.4795 19.4609C17.9133 16.8843 19.3315 14.0749 19.3848 11.3711L19.3809 10.9766L19.3584 10.5664C19.0219 6.3548 15.5152 3.03656 11.2285 3.02148L10.9453 3.02344ZM11.2002 7.28125C13.457 7.2814 15.2859 9.11663 15.2861 11.3789C15.2861 13.6414 13.4572 15.4774 11.2002 15.4775C8.94309 15.4775 7.11426 13.6415 7.11426 11.3789C7.1145 9.11654 8.94323 7.28125 11.2002 7.28125ZM11.2002 9.50293C10.1679 9.50293 9.32934 10.3419 9.3291 11.3789C9.3291 12.4161 10.1677 13.2559 11.2002 13.2559C12.2325 13.2557 13.0703 12.416 13.0703 11.3789C13.0701 10.342 12.2324 9.50308 11.2002 9.50293Z" fill="#7EB794" stroke="#7EB794" stroke-width="0.4"/>
</svg>
