<svg width="26" height="26" viewBox="0 0 26 26" fill="none" xmlns="http://www.w3.org/2000/svg">
<path d="M18.2012 0.799805C20.2929 0.799893 22.047 1.54765 23.2773 2.84277C24.5068 4.137 25.2002 5.96417 25.2002 8.09961V17.9004C25.2002 20.0358 24.5069 21.863 23.2773 23.1572C22.0467 24.4524 20.2916 25.2002 18.1992 25.2002H7.79785C5.70574 25.2002 3.95173 24.4523 2.72168 23.1572C1.49266 21.8631 0.799805 20.036 0.799805 17.9004V8.09961C0.799805 5.96585 1.49552 4.13933 2.72559 2.84473C3.95652 1.54922 5.70962 0.79984 7.79785 0.799805H18.2012ZM7.79785 3C6.3185 3.00003 5.12474 3.50428 4.2998 4.38184C3.47361 5.26074 3 6.53318 3 8.09961V17.9004C3 19.4695 3.47176 20.742 4.29688 21.6201C5.12072 22.4969 6.31454 23 7.79785 23H18.1992C19.6828 23 20.8777 22.4969 21.7021 21.6201C22.5278 20.7419 23 19.4692 23 17.9004V8.09961C23 6.53092 22.5277 5.25815 21.7021 4.37988C20.878 3.50318 19.684 3.00008 18.2012 3H7.79785ZM7.62402 11.3623C8.52771 11.3623 9.26159 12.0978 9.26172 13C9.26172 13.9026 8.52757 14.6367 7.62402 14.6367C6.72052 14.6367 5.98633 13.9025 5.98633 13C5.98646 12.0978 6.72038 11.3624 7.62402 11.3623ZM12.999 11.3623C13.9027 11.3623 14.6366 12.0978 14.6367 13C14.6367 13.9026 13.9026 14.6367 12.999 14.6367C12.0956 14.6365 11.3613 13.9024 11.3613 13C11.3615 12.0979 12.0955 11.3625 12.999 11.3623ZM18.374 11.3623C19.2777 11.3623 20.0116 12.0978 20.0117 13C20.0117 13.9026 19.2776 14.6367 18.374 14.6367C17.4706 14.6366 16.7363 13.9025 16.7363 13C16.7365 12.0978 17.4704 11.3624 18.374 11.3623Z" fill="#7EB794" stroke="#7EB794" stroke-width="0.4"/>
</svg>
