<svg width="22" height="26" viewBox="0 0 22 26" fill="none" xmlns="http://www.w3.org/2000/svg">
<path d="M13.0801 22.1523C13.4456 21.7775 14.0411 21.7354 14.4561 22.0732C14.8696 22.41 14.9563 23.0043 14.6738 23.4443L14.6123 23.5303C14.3911 23.8086 14.1344 24.0572 13.8623 24.2627L13.8633 24.2637C13.0057 24.9364 11.9302 25.2643 10.8477 25.1895L10.6309 25.1689C9.54714 25.0399 8.55206 24.5133 7.83887 23.6943L7.7002 23.5264C7.34824 23.0791 7.42041 22.4275 7.86328 22.0703C8.30761 21.712 8.95539 21.7867 9.30859 22.2354L9.45996 22.4092C9.83138 22.7949 10.3293 23.0448 10.8711 23.1094L11.1035 23.125C11.6447 23.1358 12.177 22.9597 12.6152 22.6162L12.6182 22.6133L12.7256 22.5273C12.8297 22.438 12.9246 22.3386 13.0098 22.2314L13.0801 22.1523ZM11.1582 2.87402C8.00203 2.87402 5.1573 5.15042 4.89453 7.98633C4.88077 8.14594 4.86994 8.31135 4.86133 8.48535L4.8418 9.03516L4.84277 9.03613L4.83496 10.1396V10.1484L4.83398 10.1582L4.81641 10.3281L4.81543 10.3379L4.81348 10.3486C4.58595 11.4578 4.06924 12.4853 3.32129 13.335L3.22656 13.4912L3.22754 13.4922C3.0414 13.8276 2.92115 14.191 2.87402 14.5479L2.85547 14.7568V15.0176C2.84041 15.7321 3.0807 16.4274 3.49316 16.9375C4.14939 17.6265 5.03641 18.0585 6.00098 18.1514H6.00391L6.65137 18.2168C9.88976 18.5241 13.153 18.5019 16.4004 18.1494H16.4033L16.582 18.1289C17.4691 18.0063 18.2848 17.5875 18.8643 16.9746C19.3217 16.4214 19.5637 15.7244 19.5459 14.9893V14.9834L19.5469 14.7969L19.5312 14.5996C19.4808 14.156 19.3272 13.7294 19.083 13.3516L18.9258 13.167L18.9219 13.1631C18.3336 12.437 17.9069 11.5942 17.6689 10.6914L17.667 10.6865L17.5898 10.3555L17.5869 10.3467L17.5859 10.3369L17.5703 10.2266L17.5684 10.2129V10.2119C17.5565 10.0466 17.5506 9.8991 17.5469 9.72266V9.71875L17.543 8.63379L17.5361 8.28223C17.532 8.18011 17.5256 8.08853 17.5176 7.99512L17.4844 7.73047C17.0674 5.01059 14.2998 2.87402 11.2432 2.87402H11.1582ZM19.5986 9.54199L19.6025 9.7666L19.6133 9.98633L19.6621 10.1895H19.6611C19.8225 10.7842 20.1051 11.3406 20.4912 11.8242H20.4922L20.6729 12.0371L20.6787 12.0439H20.6777L20.752 12.1387L20.7568 12.1445L20.7607 12.1504C21.2689 12.9098 21.5582 13.7935 21.5996 14.7422L21.6006 14.751L21.4004 14.75L21.5996 14.751L21.5986 15.2354V15.2412C21.5631 16.3679 21.1497 17.4549 20.3945 18.3584L20.3867 18.3672L20.2402 18.2295L20.3857 18.3672C19.3897 19.4241 18.0403 20.0802 16.6055 20.2129L16.6064 20.2139C13.0097 20.6044 9.38076 20.6044 5.79395 20.2148V20.2139C4.3492 20.0743 3.00418 19.4195 1.9668 18.3242L1.96191 18.3193L1.95703 18.3135C1.18583 17.3732 0.775166 16.1884 0.800781 14.9902L0.801758 14.708V14.6992L1.00195 14.709L0.802734 14.6992C0.847316 13.7892 1.13466 12.9078 1.63574 12.1465L1.64062 12.1396L1.64551 12.1338L1.72559 12.0303L1.73047 12.0234L1.73633 12.0176C2.25286 11.4512 2.61015 10.7628 2.7793 10.0205L2.78223 9.39844V9.39551L2.79785 8.68066V8.67773L2.81836 8.22852C2.82686 8.08296 2.83648 7.9406 2.84863 7.7998V7.79883L2.89355 7.42676C3.45779 3.61084 7.15905 0.799805 11.1582 0.799805H11.2432C15.2404 0.799805 18.9418 3.60889 19.5176 7.43066L19.5635 7.80371V7.80566L19.5879 8.17871C19.5933 8.3058 19.5963 8.44028 19.5977 8.59668V8.59863L19.5986 9.54199Z" fill="#7EB794" stroke="#7EB794" stroke-width="0.4"/>
</svg>
