<svg width="27" height="26" viewBox="0 0 27 26" fill="none" xmlns="http://www.w3.org/2000/svg">
<path d="M10.4902 15.8555L10.8896 15.8564H10.8906L11.9531 15.8799C14.3652 15.9658 16.3059 16.2804 17.6943 16.9131C18.4909 17.2761 19.1149 17.7482 19.5391 18.3496C19.9643 18.9526 20.1796 19.6726 20.1797 20.5146C20.1797 21.3391 19.9737 22.0483 19.5664 22.6455C19.1601 23.2412 18.5617 23.7129 17.7979 24.0801C16.2766 24.8114 14.0658 25.1422 11.2832 25.1934H11.2812L10.4912 25.2002H10.4893C7.45602 25.2002 5.04846 24.911 3.39355 24.1914C2.56314 23.8303 1.91264 23.3561 1.46973 22.7471C1.02531 22.1359 0.799805 21.4019 0.799805 20.54C0.799815 19.6773 1.02564 18.9416 1.4707 18.3281C1.91455 17.7165 2.56701 17.2391 3.39844 16.875C5.05511 16.1495 7.46249 15.8555 10.4893 15.8555H10.4902ZM10.4893 18.1436C7.98504 18.1436 6.10753 18.3653 4.86328 18.79C3.61308 19.2168 3.07522 19.818 3.0752 20.54C3.0752 21.2558 3.6105 21.8503 4.86035 22.2725C6.10403 22.6924 7.98171 22.9111 10.4893 22.9111C12.9934 22.9111 14.8707 22.6894 16.1152 22.2646C17.3658 21.8378 17.9043 21.2366 17.9043 20.5146C17.9042 19.7995 17.3685 19.2045 16.1182 18.7822C14.874 18.3621 12.9961 18.1436 10.4893 18.1436ZM20.498 14.9639L21.0479 15.0117C21.5953 15.07 22.1371 15.1591 22.6631 15.2764H22.6641C24.1682 15.5778 25.353 16.1528 25.9004 17.3096L25.9707 17.4697C26.2762 18.2238 26.2762 19.0702 25.9707 19.8242L25.9004 19.9844C25.3899 21.0665 24.3268 21.636 22.9502 21.9609L22.6709 22.0225C22.0542 22.1501 21.4533 21.7498 21.3271 21.1318C21.2011 20.5143 21.5958 19.9081 22.2119 19.7803L22.5479 19.7021C22.8667 19.6191 23.1348 19.5219 23.3457 19.416C23.6329 19.2719 23.7879 19.1255 23.8457 19.0029L23.8799 18.917C23.9394 18.7424 23.94 18.5519 23.8809 18.3779L23.8457 18.292C23.7873 18.1688 23.6319 18.0217 23.3428 17.8779C23.0596 17.7371 22.6744 17.6118 22.2002 17.5166H22.1953C21.7363 17.4142 21.2736 17.3377 20.8086 17.2881L20.3428 17.2471C19.715 17.2039 19.2429 16.6572 19.2852 16.0283L19.2988 15.9121C19.3955 15.3411 19.909 14.9235 20.498 14.9639ZM10.4893 0.799805C14.1611 0.799901 17.1084 3.77049 17.1084 7.46484C17.1082 11.16 14.1613 14.1298 10.4893 14.1299C6.8173 14.1299 3.87129 11.1602 3.87109 7.46484C3.87109 3.7703 6.81743 0.799805 10.4893 0.799805ZM18.5254 2.14648C21.4308 2.14657 23.7841 4.51984 23.7842 7.44238C23.7842 10.3659 21.4313 12.7382 18.5254 12.7383C17.8958 12.7383 17.3877 12.2244 17.3877 11.5938C17.3878 10.9632 17.8959 10.4492 18.5254 10.4492C20.172 10.4491 21.5088 9.1046 21.5088 7.44238C21.5087 5.78102 20.1715 4.43563 18.5254 4.43555C17.8958 4.43555 17.3877 3.92166 17.3877 3.29102C17.3878 2.66043 17.8958 2.14648 18.5254 2.14648ZM10.4893 3.08887C8.07673 3.08887 6.14648 5.0315 6.14648 7.46484C6.14668 9.89916 8.07674 11.8418 10.4893 11.8418C12.902 11.8417 14.8328 9.89873 14.833 7.46484C14.833 5.03192 12.9021 3.08896 10.4893 3.08887Z" fill="#7EB794" stroke="#7EB794" stroke-width="0.4"/>
</svg>
