<svg width="26" height="26" viewBox="0 0 26 26" fill="none" xmlns="http://www.w3.org/2000/svg">
<rect x="0.5" y="0.5" width="25" height="25" rx="1.5" fill="#E5E5E5" stroke="#E5E5E5"/>
<path d="M5.79743 11.1583L4.10084 12.8917H4.09521C4.09521 12.8917 7.50135 16.3454 10.9056 19.825L14.31 16.3843L21.9702 8.55835L20.2663 6.82501L10.9041 16.6183L5.79743 11.1583Z" fill="#10201F" fill-opacity="0.2"/>
<path d="M20.2651 6.62482C20.319 6.62451 20.3708 6.64605 20.4087 6.68439L22.1128 8.41779L22.1382 8.44904C22.1884 8.526 22.1795 8.62991 22.1128 8.69806L14.4526 16.5242V16.5252L11.0474 19.9656C11.0097 20.0036 10.9583 20.0254 10.9048 20.0252C10.8513 20.025 10.7996 20.0029 10.7622 19.9647C9.06054 18.2253 7.35842 16.4923 6.08154 15.1942C5.44311 14.5451 4.91106 14.0039 4.53857 13.6258C4.3524 13.4368 4.20573 13.2885 4.10596 13.1873C4.05613 13.1368 4.01747 13.0982 3.9917 13.0721C3.97881 13.059 3.96895 13.0484 3.9624 13.0418L3.95264 13.032C3.89611 12.9746 3.87955 12.8886 3.91064 12.8143C3.92456 12.7811 3.9476 12.7541 3.9751 12.7332L5.65479 11.0184L5.68604 10.993C5.71933 10.9706 5.75855 10.9584 5.79932 10.9588C5.85386 10.9594 5.90657 10.9815 5.94385 11.0213L10.9058 16.326L20.1216 6.68634L20.1519 6.66095C20.1848 6.63799 20.2244 6.6251 20.2651 6.62482Z" stroke="#10201F" stroke-opacity="0.2" stroke-width="0.4" stroke-linejoin="round"/>
</svg>
