<svg width="84" height="83" viewBox="0 0 84 83" fill="none" xmlns="http://www.w3.org/2000/svg">
<path d="M42.3684 0L43.5294 0.0159535C65.9013 0.631477 83.8684 18.9803 83.8684 41.5C83.8684 64.3665 65.2764 83 42.3684 83C19.5019 83 0.868408 64.3665 0.868408 41.5C0.868408 18.592 19.5019 0 42.3684 0ZM50.5854 24.9C49.3404 23.655 47.3899 23.655 46.1864 24.9L31.7029 39.3005C31.1219 39.8815 30.7899 40.67 30.7899 41.5C30.7899 42.33 31.1219 43.1185 31.7029 43.6995L46.1864 58.1C46.7674 58.7225 47.5559 59.013 48.3444 59.013C49.1744 59.013 49.9629 58.7225 50.5854 58.1C51.7889 56.855 51.7889 54.9045 50.5439 53.701L38.3014 41.5L50.5439 29.299C51.7889 28.0955 51.7889 26.1035 50.5854 24.9Z" fill="#7EB794"/>
</svg>
