<svg width="306" height="79" viewBox="0 0 306 79" fill="none" xmlns="http://www.w3.org/2000/svg">
<path d="M45.0825 7.988V59H32.6565V37.9993H13.3272V59H0.901162V7.988H13.3272V27.9713H32.6565V7.988H45.0825ZM71.7835 59.5813C67.8111 59.5813 64.2262 58.7336 61.0289 57.038C57.88 55.3424 55.3851 52.9202 53.5442 49.7713C51.7517 46.6224 50.8555 42.9407 50.8555 38.726C50.8555 34.5598 51.776 30.9022 53.6169 27.7533C55.4577 24.556 57.9769 22.1096 61.1742 20.414C64.3715 18.7184 67.9564 17.8707 71.9289 17.8707C75.9013 17.8707 79.4862 18.7184 82.6835 20.414C85.8809 22.1096 88.4 24.556 90.2409 27.7533C92.0817 30.9022 93.0022 34.5598 93.0022 38.726C93.0022 42.8922 92.0575 46.574 90.1682 49.7713C88.3273 52.9202 85.784 55.3424 82.5382 57.038C79.3409 58.7336 75.756 59.5813 71.7835 59.5813ZM71.7835 48.8267C74.1573 48.8267 76.1677 47.9547 77.8149 46.2107C79.5104 44.4667 80.3582 41.9718 80.3582 38.726C80.3582 35.4802 79.5346 32.9853 77.8875 31.2413C76.2889 29.4973 74.3026 28.6253 71.9289 28.6253C69.5066 28.6253 67.4962 29.4973 65.8975 31.2413C64.2989 32.9369 63.4995 35.4318 63.4995 38.726C63.4995 41.9718 64.2746 44.4667 65.8249 46.2107C67.4235 47.9547 69.4097 48.8267 71.7835 48.8267ZM150.606 18.016C155.645 18.016 159.641 19.542 162.596 22.594C165.6 25.646 167.102 29.8849 167.102 35.3107V59H154.748V36.982C154.748 34.366 154.046 32.3556 152.641 30.9507C151.285 29.4973 149.395 28.7707 146.973 28.7707C144.551 28.7707 142.637 29.4973 141.232 30.9507C139.876 32.3556 139.198 34.366 139.198 36.982V59H126.844V36.982C126.844 34.366 126.142 32.3556 124.737 30.9507C123.381 29.4973 121.491 28.7707 119.069 28.7707C116.647 28.7707 114.733 29.4973 113.328 30.9507C111.972 32.3556 111.294 34.366 111.294 36.982V59H98.8677V18.452H111.294V23.5387C112.553 21.8431 114.2 20.5109 116.235 19.542C118.27 18.5247 120.571 18.016 123.138 18.016C126.19 18.016 128.903 18.67 131.277 19.978C133.699 21.286 135.589 23.1511 136.945 25.5733C138.35 23.3449 140.264 21.5282 142.686 20.1233C145.108 18.7184 147.748 18.016 150.606 18.016ZM181.315 14.2373C179.135 14.2373 177.342 13.6076 175.938 12.348C174.581 11.04 173.903 9.44133 173.903 7.552C173.903 5.61422 174.581 4.01556 175.938 2.756C177.342 1.448 179.135 0.793998 181.315 0.793998C183.446 0.793998 185.19 1.448 186.547 2.756C187.952 4.01556 188.654 5.61422 188.654 7.552C188.654 9.44133 187.952 11.04 186.547 12.348C185.19 13.6076 183.446 14.2373 181.315 14.2373ZM187.492 18.452V59H175.066V18.452H187.492ZM220.477 18.016C225.224 18.016 229.003 19.5662 231.813 22.6667C234.671 25.7187 236.1 29.9333 236.1 35.3107V59H223.747V36.982C223.747 34.2691 223.044 32.1618 221.639 30.66C220.234 29.1582 218.345 28.4073 215.971 28.4073C213.597 28.4073 211.708 29.1582 210.303 30.66C208.898 32.1618 208.196 34.2691 208.196 36.982V59H195.77V18.452H208.196V23.8293C209.455 22.0369 211.151 20.632 213.283 19.6147C215.414 18.5489 217.812 18.016 220.477 18.016ZM259.413 17.8707C262.272 17.8707 264.766 18.452 266.898 19.6147C269.078 20.7773 270.749 22.3033 271.912 24.1927V18.452H284.338V58.9273C284.338 62.6576 283.587 66.0244 282.085 69.028C280.632 72.08 278.379 74.5022 275.327 76.2947C272.324 78.0871 268.569 78.9833 264.064 78.9833C258.057 78.9833 253.188 77.5542 249.458 74.696C245.728 71.8862 243.596 68.0591 243.063 63.2147H255.344C255.732 64.7649 256.652 65.976 258.105 66.848C259.559 67.7684 261.351 68.2287 263.483 68.2287C266.05 68.2287 268.085 67.4778 269.587 65.976C271.137 64.5227 271.912 62.1731 271.912 58.9273V53.1867C270.701 55.076 269.03 56.6262 266.898 57.8373C264.766 59 262.272 59.5813 259.413 59.5813C256.071 59.5813 253.043 58.7336 250.33 57.038C247.617 55.294 245.461 52.8476 243.863 49.6987C242.312 46.5013 241.537 42.8196 241.537 38.6533C241.537 34.4871 242.312 30.8296 243.863 27.6807C245.461 24.5318 247.617 22.1096 250.33 20.414C253.043 18.7184 256.071 17.8707 259.413 17.8707ZM271.912 38.726C271.912 35.6256 271.04 33.1791 269.296 31.3867C267.6 29.5942 265.517 28.698 263.047 28.698C260.576 28.698 258.469 29.5942 256.725 31.3867C255.029 33.1307 254.181 35.5529 254.181 38.6533C254.181 41.7538 255.029 44.2244 256.725 46.0653C258.469 47.8578 260.576 48.754 263.047 48.754C265.517 48.754 267.6 47.8578 269.296 46.0653C271.04 44.2729 271.912 41.8264 271.912 38.726ZM298.414 59.5813C296.234 59.5813 294.442 58.9516 293.037 57.692C291.681 56.384 291.002 54.7853 291.002 52.896C291.002 50.9582 291.681 49.3353 293.037 48.0273C294.442 46.7193 296.234 46.0653 298.414 46.0653C300.546 46.0653 302.29 46.7193 303.646 48.0273C305.051 49.3353 305.754 50.9582 305.754 52.896C305.754 54.7853 305.051 56.384 303.646 57.692C302.29 58.9516 300.546 59.5813 298.414 59.5813Z" fill="#10201F"/>
</svg>
